<?xml version="1.0" encoding="utf-8"?>
<!-- Generator: Adobe Illustrator 16.0.0, SVG Export Plug-In . SVG Version: 6.00 Build 0)  -->
<!DOCTYPE svg PUBLIC "-//W3C//DTD SVG 1.1//EN" "http://www.w3.org/Graphics/SVG/1.1/DTD/svg11.dtd">
<svg version="1.1" id="YouTube_Logo" xmlns="http://www.w3.org/2000/svg" xmlns:xlink="http://www.w3.org/1999/xlink" x="0px"
	 y="0px" width="773.287px" height="481.076px" viewBox="0 0 773.287 481.076" enable-background="new 0 0 773.287 481.076"
	 xml:space="preserve">
<linearGradient id="lozenge_1_" gradientUnits="userSpaceOnUse" x1="487.9834" y1="136" x2="487.9834" y2="345.0776">
	<stop  offset="0" style="stop-color:#E32E28"/>
	<stop  offset="1" style="stop-color:#BE2126"/>
</linearGradient>
<path id="lozenge_2_" fill="url(#lozenge_1_)" d="M634.306,181.104c0,0-2.918-20.485-11.871-29.506
	c-11.354-11.839-24.084-11.898-29.92-12.591C550.729,136,488.05,136,488.05,136h-0.131c0,0-62.682,0-104.467,3.007
	c-5.838,0.692-18.563,0.752-29.92,12.591c-8.953,9.021-11.867,29.506-11.867,29.506s-2.986,24.055-2.986,48.112v22.553
	c0,24.055,2.986,48.109,2.986,48.109s2.914,20.484,11.867,29.506c11.357,11.842,26.281,11.465,32.926,12.705
	c23.889,2.283,101.525,2.988,101.525,2.988s62.746-0.094,104.531-3.1c5.836-0.693,18.566-0.752,29.92-12.594
	c8.953-9.021,11.871-29.506,11.871-29.506s2.982-24.055,2.982-48.109v-22.553C637.288,205.159,634.306,181.104,634.306,181.104z"/>
<g id="You">
	<path id="u_2_" d="M323.265,305.196h-19v-11c-7.203,8.256-13.309,12.426-19.965,12.426c-5.84,0-9.896-2.755-11.926-7.732
		c-1.234-3.026-2.109-7.752-2.109-14.693v-80h19v75c0,4.242,0,6,0,7c0.443,2.807,1.635,3.832,4.051,3.832
		c3.637,0,6.928-3.16,10.949-8.832v-77h19V305.196z"/>
	<path id="o_2_" d="M256.265,237.196c0-10.793-2.168-18.898-6-24c-5.062-6.908-13-9.736-21-9.736c-9.055,0-15.946,2.828-21,9.736
		c-3.893,5.102-5.981,13.294-5.981,24.088l-0.019,35.912c0,10.732,1.857,18.148,5.75,23.201c5.054,6.887,13.25,10.535,21.25,10.535
		s16.339-3.648,21.4-10.535c3.832-5.053,5.6-12.469,5.6-23.201V237.196z M237.265,275.196c1,10-2.102,14.962-8.001,14.962
		s-8.999-4.962-7.999-14.962v-40c-1-10,2.1-14.687,8-14.687s9.01,4.687,8.01,14.687L237.265,275.196z"/>
	<path id="y_2_" d="M181.265,250.196v55h-20v-55c0,0-20.725-67.431-25-80h21l14.035,52.675l13.965-52.675h21L181.265,250.196z"/>
</g>
<g id="Tube">
	<path id="e_1_" fill="#FFFFFF" d="M612.3,258.196l-0.004-20.443c0-10.68-2.104-18.493-5.889-23.547
		c-5.074-6.838-12.283-10.457-21.365-10.457c-9.242,0-16.451,3.619-21.688,10.457c-3.846,5.055-6.09,13.311-6.09,23.991v35
		c0,10.619,2.467,18.053,6.313,23.053c5.234,6.828,12.443,10.236,21.914,10.236c9.459,0,16.889-3.576,21.896-10.832
		c2.201-3.203,3.623-6.834,4.234-10.848c0.162-1.813,0.643-5.941,0.643-11.775v-2.834h-18.999c0,7.264,0.032,11.582-0.136,12.568
		c-1.033,4.84-3.631,7.264-8.088,7.264c-6.215,0-8.84-4.646-8.777-13.874v-17.958H612.3z M576.265,232.155
		c0-9.346,2.563-11.895,8.609-11.895c6.002,0,8.391,2.777,8.391,12.02v10.917l-17,0.019V232.155z"/>
	<path id="b_1_" fill="#FFFFFF" d="M528.372,203.592c-6.66,0-13.28,4.096-19.128,11.292l0.021-43.688h-18v134h18l0.025-10.068
		c6.049,7.484,12.645,11.357,19.082,11.357c7.209,0,12.477-3.859,14.893-11.289c1.209-4.236,2-10.758,2-20v-40
		c0-9.465-1.213-15.936-2.422-19.956C540.427,207.756,535.581,203.592,528.372,203.592z M526.265,276.196
		c0,10-2.357,13.832-7.578,13.832c-2.98,0-6.415-1.534-9.442-4.562l0.021-60.646c3.027-2.988,6.441-4.561,9.422-4.561
		c5.221,0,7.578,2.936,7.578,12.936V276.196z"/>
	<path id="u_1_" fill="#FFFFFF" d="M476.265,305.196h-19v-11c-7.203,8.256-13.309,12.426-19.965,12.426
		c-5.84,0-9.896-2.755-11.926-7.732c-1.234-3.026-2.109-7.752-2.109-14.693v-79h19v74c0,4.242,0,6,0,7
		c0.443,2.807,1.635,3.832,4.051,3.832c3.637,0,6.928-3.16,10.949-8.832v-76h19V305.196z"/>
	<polygon id="T" fill="#FFFFFF" points="404.265,305.196 384.265,305.196 384.265,190.196 363.265,190.196 363.265,171.217 
		426.265,171.196 426.265,190.196 404.265,190.196 	"/>
</g>
</svg>
